<?xml version="1.0" encoding="UTF-8" standalone="no"?>
<svg
   xmlns:dc="http://purl.org/dc/elements/1.1/"
   xmlns:cc="http://creativecommons.org/ns#"
   xmlns:rdf="http://www.w3.org/1999/02/22-rdf-syntax-ns#"
   xmlns:svg="http://www.w3.org/2000/svg"
   xmlns="http://www.w3.org/2000/svg"
   xmlns:xlink="http://www.w3.org/1999/xlink"
   id="svg8"
   version="1.1"
   viewBox="0 0 210 297"
   height="297mm"
   width="210mm">
  <defs
     id="defs2">
    <linearGradient
       id="linearGradient918">
      <stop
         id="stop914"
         offset="0"
         style="stop-color:#be5108;stop-opacity:1;" />
      <stop
         id="stop916"
         offset="1"
         style="stop-color:#2e6ca4;stop-opacity:1" />
    </linearGradient>
    <clipPath
       id="clipPath880"
       clipPathUnits="userSpaceOnUse">
      <g
         style="fill:#000000;stroke:none"
         transform="matrix(0.02690097,0,0,-0.02690097,144.85996,288.79348)"
         id="g884">
        <path
           d="m 2421,10307 c -6,-6 -11,-7 -11,-1 0,5 -5,2 -10,-6 -7,-12 -12,-12 -22,-2 -18,18 -48,15 -88,-10 -26,-15 -51,-21 -93,-21 -37,1 -63,-4 -72,-13 -8,-8 -18,-14 -22,-13 -12,3 -81,-29 -88,-40 -3,-6 -12,-8 -20,-5 -8,4 -27,-8 -44,-27 -17,-18 -39,-33 -50,-34 -25,-2 -78,-57 -132,-136 -22,-33 -44,-59 -48,-59 -8,0 -13,-21 -27,-120 -4,-25 -15,-54 -26,-66 -11,-13 -18,-33 -16,-51 1,-17 -3,-38 -10,-45 -7,-9 -12,-48 -13,-89 -1,-98 19,-381 32,-444 7,-34 7,-70 0,-112 -5,-35 -8,-77 -5,-95 2,-18 6,-73 8,-123 5,-109 14,-155 31,-175 7,-8 15,-35 18,-60 3,-25 10,-63 16,-85 8,-32 7,-48 -5,-81 -16,-43 -16,-215 1,-263 11,-31 -15,-25 -30,7 -5,12 -18,25 -27,28 -10,3 -36,21 -59,40 -22,19 -47,34 -54,34 -16,0 -62,-36 -100,-79 -16,-19 -49,-55 -72,-80 -23,-25 -48,-59 -55,-76 -7,-16 -19,-37 -27,-45 -13,-13 -11,-16 12,-24 28,-10 34,-21 18,-30 -5,-3 -14,1 -21,9 -16,19 -30,19 -30,0 0,-8 -3,-14 -8,-13 -18,5 -50,-23 -45,-41 3,-10 0,-22 -6,-25 -11,-7 -15,6 -11,34 2,13 -30,-17 -133,-127 -16,-18 -34,-33 -39,-33 -5,0 -6,-5 -2,-12 5,-7 2,-9 -7,-6 -36,14 -132,-119 -108,-149 7,-8 5,-10 -9,-6 -28,7 -36,-14 -11,-28 21,-11 22,-12 3,-22 -10,-7 -21,-12 -24,-12 -3,0 -10,-4 -17,-8 -25,-16 -108,-36 -111,-28 -4,12 -62,-21 -61,-34 6,-60 -13,-82 -45,-50 -8,8 -21,15 -28,15 -8,0 -7,-4 4,-11 22,-12 24,-58 3,-60 -26,-2 -29,-4 -69,-43 -21,-20 -44,-35 -51,-32 -7,2 -18,-6 -25,-20 -8,-13 -18,-24 -23,-24 -5,0 -16,-8 -23,-17 -12,-17 -13,-17 -21,3 -10,28 -44,17 -70,-23 -10,-15 -22,-31 -27,-35 -5,-3 -9,-21 -8,-39 1,-24 -2,-29 -8,-19 -9,14 -14,7 -11,-13 1,-5 -3,-6 -8,-3 -17,11 -88,-80 -118,-154 -34,-82 -73,-219 -73,-259 0,-14 -4,-32 -9,-40 -5,-7 -6,-22 -4,-32 4,-16 8,-17 20,-7 12,10 13,7 7,-18 -3,-16 -13,-34 -22,-41 -12,-10 -14,-31 -8,-130 9,-167 16,-216 31,-233 17,-18 14,-45 -6,-68 -10,-12 -20,-62 -28,-137 -7,-66 -17,-136 -23,-155 -8,-24 -11,-246 -10,-695 1,-611 3,-666 20,-735 26,-101 70,-202 121,-274 22,-33 41,-63 41,-68 0,-5 15,-29 33,-53 17,-24 43,-63 57,-87 14,-24 44,-61 68,-83 l 42,-40 -10,-200 c -5,-110 -10,-261 -10,-335 -1,-141 -15,-232 -44,-288 -27,-52 -37,-134 -36,-309 1,-177 8,-210 57,-253 42,-38 137,-100 154,-100 36,-1 41,-16 18,-59 -18,-36 -21,-52 -16,-107 4,-36 13,-77 21,-92 24,-43 27,-73 32,-291 2,-113 6,-228 8,-256 18,-201 18,-233 3,-286 -9,-30 -18,-79 -22,-109 -3,-30 -11,-76 -17,-102 -9,-35 -9,-57 0,-85 6,-21 13,-60 16,-88 3,-27 14,-68 25,-90 12,-21 21,-45 21,-52 0,-7 14,-29 32,-49 l 32,-36 -17,-67 C 642,377 581,181 564,142 549,108 546,60 556,23 l 6,-23 h 528 c 495,0 529,1 534,18 36,127 62,196 95,245 21,32 46,83 56,115 50,169 69,221 94,262 19,30 30,64 34,102 3,32 17,86 30,120 14,35 28,84 31,110 5,29 17,60 32,78 19,22 28,49 36,102 11,82 20,103 49,119 24,13 49,67 49,107 v 29 l 47,-23 c 27,-12 74,-25 106,-29 52,-7 61,-5 82,15 l 23,22 17,-36 c 26,-54 111,-86 143,-54 9,9 12,7 12,-10 0,-13 7,-39 16,-60 29,-68 44,-142 44,-216 0,-42 7,-92 16,-117 38,-106 64,-215 89,-369 14,-91 31,-178 37,-195 6,-16 14,-46 18,-65 18,-83 52,-195 71,-231 l 19,-39 h 490 490 l 4,22 c 3,13 7,95 10,183 5,178 15,281 51,525 15,97 29,257 35,390 6,124 15,248 20,275 5,28 16,131 24,230 14,164 24,234 44,320 8,36 8,220 0,290 -3,28 -9,88 -12,135 -4,47 -12,104 -18,127 -5,23 -9,77 -7,121 4,73 9,89 57,184 51,101 52,106 52,188 0,76 -9,144 -40,293 -5,27 -12,52 -15,57 -3,4 -9,37 -14,72 -9,61 -8,65 29,138 181,359 258,584 274,803 3,43 19,118 35,170 57,177 53,213 -15,146 -42,-42 -45,-43 -62,-25 -16,17 -16,19 13,39 16,12 44,36 61,52 18,17 36,29 42,27 13,-4 22,58 22,166 0,84 -2,96 -21,111 -19,15 -21,23 -14,70 4,29 15,61 24,70 9,10 18,24 20,32 9,29 13,120 5,137 -4,9 -7,20 -6,23 1,4 -6,6 -14,5 -11,-1 -29,27 -54,84 -50,111 -50,113 1,105 l 42,-7 -7,38 c -11,60 -27,104 -37,104 -6,0 -7,4 -4,10 4,6 -8,10 -29,10 -29,0 -36,-4 -36,-19 0,-19 -52,-46 -64,-34 -3,4 -6,53 -6,110 0,99 1,103 22,103 12,0 29,-7 39,-16 30,-27 38,-8 22,48 -8,29 -17,60 -21,68 -3,8 -7,22 -8,30 -8,45 -121,362 -156,438 -16,34 -19,57 -16,110 3,42 0,76 -7,92 -7,14 -16,44 -20,67 -6,40 -75,188 -97,208 -8,7 -9,5 -3,-5 7,-12 6,-13 -6,-2 -8,7 -14,17 -14,22 0,10 0,10 -123,140 -49,53 -102,120 -117,150 -33,65 -44,75 -111,95 -28,8 -64,22 -80,30 -16,8 -34,15 -40,15 -21,0 -224,87 -224,96 0,12 30,62 44,73 44,36 -4,110 -97,151 -33,15 -64,41 -102,88 -30,36 -55,69 -55,74 0,4 -20,19 -43,33 -48,27 -91,32 -132,13 -23,-10 -33,-8 -71,13 -45,24 -45,25 -40,64 6,39 43,247 52,292 2,13 17,37 33,55 15,18 34,51 41,73 7,22 31,60 54,85 23,25 47,63 53,85 7,22 19,65 28,95 10,33 18,96 19,156 1,63 6,108 14,117 15,18 48,119 56,172 9,62 29,128 48,154 13,19 15,37 11,90 -3,42 -1,75 6,89 18,33 -3,240 -26,259 -10,8 -12,11 -4,7 11,-5 12,-1 7,21 -4,15 -10,41 -13,59 -3,17 -16,45 -27,61 -35,50 -46,68 -68,115 -11,25 -25,48 -31,51 -5,4 -6,12 -2,19 9,15 -23,50 -45,50 -10,0 -25,12 -35,26 -18,27 -144,91 -226,115 -24,7 -52,20 -63,28 -13,11 -39,16 -87,16 -40,0 -73,5 -77,11 -4,6 -21,18 -38,27 -23,12 -34,13 -43,4 z m -43,-1177 c 8,-16 11,-39 7,-50 -3,-11 -2,-20 3,-20 14,0 36,-60 26,-70 -5,-4 -42,-11 -83,-14 -41,-4 -80,-10 -85,-15 -16,-12 -76,-22 -76,-12 0,13 33,39 60,46 47,12 92,65 95,111 0,18 23,53 35,54 3,0 11,-13 18,-30 z M 4205,6176 c 25,-18 13,-50 -16,-43 -30,8 -49,-2 -49,-26 0,-41 51,-72 76,-47 17,17 55,0 52,-24 -7,-50 -107,-58 -154,-11 -19,20 -24,34 -24,79 0,45 4,58 22,70 28,20 68,20 93,2 z M 258,6152 c 6,-9 12,-25 12,-36 0,-12 12,-28 28,-37 19,-11 35,-34 49,-72 11,-32 17,-57 13,-57 -5,0 -11,13 -15,29 -7,33 -19,45 -52,55 -21,7 -23,4 -23,-28 0,-30 -4,-37 -25,-42 -50,-12 -55,-3 -55,104 0,54 3,101 6,104 9,9 48,-3 62,-20 z m 202,-368 c 6,-19 12,-62 13,-96 l 2,-63 -36,-3 c -35,-3 -36,-2 -45,45 l -10,48 -17,-32 c -20,-37 -32,-40 -60,-15 -19,17 -19,16 -16,-33 4,-46 2,-50 -23,-59 -15,-5 -30,-7 -33,-4 -7,7 -35,221 -29,229 2,4 18,11 35,14 25,6 36,2 61,-22 28,-26 30,-27 40,-9 6,10 19,27 29,37 28,28 74,8 89,-37 z m -23,-434 c 12,-58 22,-110 23,-116 0,-12 -57,-40 -65,-32 -3,3 -14,47 -25,99 -11,52 -23,104 -25,117 -4,17 0,25 17,32 46,18 52,10 75,-100 z m 163,-390 c 16,-63 27,-118 24,-121 -2,-4 -18,-9 -35,-13 -25,-5 -39,0 -73,26 -22,17 -47,36 -54,42 -12,8 -13,0 -7,-46 7,-52 6,-55 -17,-61 -51,-14 -55,-11 -66,66 -27,176 -28,163 8,176 35,12 54,6 85,-29 11,-12 27,-26 36,-31 15,-7 16,-4 8,29 -13,55 -11,70 9,75 48,14 53,7 82,-113 z m 80,-288 c 0,-4 -14,-43 -30,-86 -25,-63 -29,-88 -24,-122 6,-41 4,-44 -21,-54 -40,-15 -44,-13 -51,30 -5,33 -18,49 -70,96 -35,31 -64,61 -64,68 0,7 17,18 37,24 35,11 39,10 68,-18 17,-17 34,-30 38,-30 3,0 12,18 18,40 10,32 19,42 43,49 40,12 56,13 56,3 z m 3601,-121 c 18,-19 29,-40 29,-58 -1,-41 -34,-109 -64,-128 -24,-16 -28,-16 -51,-1 -45,30 -56,136 -19,194 21,32 68,29 105,-7 z M 797,4238 c 47,-46 63,-69 63,-90 0,-52 -76,-98 -138,-82 -28,7 -50,26 -95,82 -63,78 -67,102 -18,102 24,0 40,-11 77,-55 32,-37 55,-55 71,-55 35,0 28,19 -29,78 -51,51 -52,54 -34,68 11,8 24,14 30,14 6,0 39,-28 73,-62 z m 288,-275 c 37,-38 75,-79 83,-92 15,-22 15,-25 -12,-48 l -29,-24 -32,31 c -34,33 -41,33 -78,2 -16,-14 -16,-17 9,-49 l 26,-34 -23,-25 c -12,-13 -27,-24 -33,-24 -7,0 -41,35 -76,77 -100,118 -96,111 -69,139 29,31 42,30 73,-7 l 26,-30 31,22 31,21 -32,33 -31,32 27,22 c 15,11 30,21 34,21 4,0 38,-30 75,-67 z"
           id="path882" />
      </g>
    </clipPath>
    <linearGradient
       gradientUnits="userSpaceOnUse"
       y2="-65.098557"
       x2="250.16493"
       y1="306.44019"
       x1="42.480835"
       id="linearGradient920"
       xlink:href="#linearGradient918" />
    <clipPath
       id="clipPath940"
       clipPathUnits="userSpaceOnUse">
      <g
         style="fill:#000000;stroke:none"
         transform="matrix(0.03527778,0,0,-0.03527778,68.189991,305.39849)"
         id="g944">
        <path
           d="m 2301,10364 c -18,-8 -41,-14 -50,-14 -22,0 -158,-68 -196,-98 -17,-13 -49,-37 -73,-53 -24,-16 -46,-37 -49,-47 -8,-20 -34,-52 -84,-101 -25,-25 -38,-48 -43,-76 -3,-22 -9,-59 -12,-83 -4,-27 -14,-46 -25,-53 -14,-7 -18,-20 -17,-49 1,-21 -5,-46 -12,-55 -10,-12 -10,-21 -1,-43 8,-19 9,-37 3,-53 -11,-28 -7,-130 10,-244 7,-44 11,-102 11,-130 -1,-27 3,-69 9,-92 8,-33 8,-46 -2,-58 -10,-12 -11,-52 -6,-173 9,-185 18,-241 42,-259 12,-9 19,-32 23,-75 8,-89 4,-209 -7,-238 -6,-16 -6,-43 1,-78 16,-78 -14,-94 -74,-38 -76,70 -103,65 -206,-41 -47,-49 -93,-106 -104,-128 -33,-69 -74,-119 -110,-137 -20,-9 -68,-53 -108,-97 -40,-45 -77,-81 -82,-81 -29,0 -93,-75 -104,-122 -10,-39 -15,-44 -57,-58 -26,-8 -57,-24 -70,-36 -36,-32 -90,-68 -133,-91 -120,-62 -148,-81 -239,-166 -55,-50 -111,-110 -125,-132 -15,-22 -43,-56 -64,-77 -20,-20 -37,-43 -37,-52 0,-9 -4,-16 -10,-16 -5,0 -10,-6 -10,-13 0,-7 -9,-29 -20,-50 -27,-51 -54,-133 -85,-256 -27,-113 -31,-213 -15,-431 9,-126 -2,-315 -26,-451 -22,-128 -11,-1400 13,-1498 21,-87 51,-154 106,-238 24,-37 54,-87 65,-109 12,-23 27,-48 34,-56 7,-7 31,-40 52,-73 22,-33 53,-74 68,-91 l 29,-31 -11,-214 c -5,-118 -10,-270 -10,-338 0,-121 -14,-209 -44,-276 -39,-84 -50,-377 -20,-483 19,-65 35,-87 84,-112 19,-10 61,-38 92,-63 49,-38 55,-47 43,-57 -20,-16 -20,-121 -1,-181 8,-24 17,-84 20,-134 2,-49 8,-119 11,-155 15,-161 23,-275 19,-281 -2,-4 1,-54 7,-110 8,-74 8,-117 1,-153 -38,-175 -44,-225 -39,-321 6,-118 13,-159 38,-200 11,-16 19,-38 19,-47 0,-9 11,-29 24,-45 25,-30 35,-61 25,-78 -4,-5 -14,-44 -24,-85 C 736,349 717,281 703,240 662,114 659,103 653,51 l -6,-51 548,2 548,3 8,25 c 4,14 15,51 25,83 19,64 86,176 134,223 46,45 100,210 107,329 3,65 13,114 35,175 17,47 34,103 37,126 4,22 16,54 28,70 27,40 34,59 43,131 7,53 13,66 44,95 29,26 36,40 36,70 0,20 4,39 9,42 5,3 28,-3 52,-13 24,-10 82,-24 129,-31 47,-6 103,-20 125,-30 61,-28 93,-34 110,-20 13,11 15,8 15,-14 0,-15 6,-37 12,-49 22,-39 39,-120 48,-222 5,-67 20,-140 44,-220 20,-66 39,-131 42,-145 12,-51 24,-125 29,-182 6,-53 4,-61 -19,-89 -41,-48 -77,-134 -86,-202 -5,-34 -11,-76 -15,-93 -5,-22 -2,-35 10,-47 15,-15 70,-17 620,-14 402,1 607,5 614,12 6,6 13,33 17,60 3,28 10,60 16,72 6,12 7,34 3,50 -9,37 -9,38 8,248 11,133 21,195 37,238 17,45 23,86 26,180 2,67 6,149 9,182 3,33 12,177 20,321 17,291 28,374 53,412 16,24 17,66 14,489 -3,492 -1,513 45,586 25,39 25,44 20,171 -4,125 -21,230 -53,343 -21,76 -12,133 36,226 77,146 198,452 227,572 8,33 18,87 23,120 4,33 15,86 24,118 9,32 16,72 16,89 0,18 9,66 19,107 26,103 40,235 46,426 3,88 9,223 14,300 5,77 6,144 1,150 -15,18 -40,99 -40,130 0,36 -22,122 -38,150 -23,40 -42,98 -42,127 0,37 -47,195 -61,203 -5,4 -9,17 -9,30 0,29 -45,166 -103,316 -42,107 -46,122 -45,201 1,51 -3,92 -9,100 -7,7 -17,36 -24,63 -16,67 -82,196 -117,231 -16,16 -67,66 -114,112 -46,46 -96,101 -109,124 -46,78 -80,108 -141,124 -31,8 -79,25 -105,38 -26,13 -70,31 -98,41 -74,24 -124,49 -125,61 0,5 14,29 31,52 24,32 29,49 25,68 -7,25 -65,94 -80,94 -24,0 -96,44 -116,71 -35,46 -80,99 -114,133 -29,28 -31,29 -109,23 -71,-6 -84,-4 -115,15 -32,19 -34,24 -27,57 4,20 9,50 11,66 16,145 40,243 68,280 12,17 33,52 46,79 13,27 36,60 53,75 16,14 36,40 45,56 22,42 51,166 62,259 8,66 7,83 -5,96 -13,15 -12,21 14,61 16,24 32,63 36,86 4,24 11,45 16,49 5,3 9,19 9,35 0,40 30,132 46,142 10,6 12,27 7,85 -4,61 -2,85 11,109 17,33 21,75 9,87 -4,4 -6,24 -4,45 1,20 -7,73 -18,116 -12,43 -21,89 -21,101 0,12 -13,36 -30,52 -16,17 -30,37 -30,46 0,8 -5,18 -11,21 -16,11 -59,111 -59,139 0,27 -24,46 -58,46 -11,0 -22,9 -25,20 -3,11 -17,24 -32,30 -14,6 -33,17 -41,25 -9,8 -23,15 -32,15 -9,0 -26,7 -37,16 -11,8 -38,19 -60,25 -22,6 -58,25 -80,42 l -40,32 -215,2 c -166,1 -223,-2 -249,-13 z"
           id="path942" />
      </g>
    </clipPath>
  </defs>
  <metadata
     id="metadata5">
    <rdf:RDF>
      <cc:Work
         rdf:about="">
        <dc:format>image/svg+xml</dc:format>
        <dc:type
           rdf:resource="http://purl.org/dc/dcmitype/StillImage" />
        <dc:title></dc:title>
      </cc:Work>
    </rdf:RDF>
  </metadata>
  <g
     id="layer1">
    <rect
       transform="matrix(0.81212367,0,0,0.81212367,-18.696846,49.285559)"
       clip-path="url(#clipPath940)"
       y="-65.098557"
       x="42.480835"
       height="371.53876"
       width="207.6841"
       id="rect912"
       style="opacity:1;fill:url(#linearGradient920);fill-opacity:1;stroke:#2e6ca4;stroke-width:0.52899998;stroke-linecap:butt;stroke-linejoin:round;stroke-miterlimit:0;stroke-dasharray:none;stroke-opacity:1" />
  </g>
</svg>
